<svg width="96" height="155" viewBox="0 0 96 155" fill="none" xmlns="http://www.w3.org/2000/svg">
<g clip-path="url(#clip0_4_210)">
<path fill-rule="evenodd" clip-rule="evenodd" d="M49.6547 9.71971C51.6029 9.03671 53 7.18151 53 5C53 2.23858 50.7614 0 48 0C45.2386 0 43 2.23858 43 5C43 7.18978 44.4077 9.05077 46.3675 9.72742L36.3945 25.5264L24.7749 15.1599C26.1165 14.2632 27 12.7348 27 11C27 8.23858 24.7614 6 22 6C19.2386 6 17 8.23858 17 11C17 13.7614 19.2386 16 22 16V43H74V16C76.7614 16 79 13.7614 79 11C79 8.23858 76.7614 6 74 6C71.2386 6 69 8.23858 69 11C69 12.7415 69.8903 14.275 71.2405 15.1702L59.6326 25.5264L49.6547 9.71971Z" fill="#212121"/>
<path fill-rule="evenodd" clip-rule="evenodd" d="M0 53H48H96V122.971L48 154.143L0 122.971V53ZM48 138.68L84 115.301V84.27L48 65.9272L12 84.2701V115.301L48 138.68ZM36 96.5C36 100.09 33.0899 103 29.5 103C25.9101 103 23 100.09 23 96.5C23 92.9102 25.9101 90 29.5 90C33.0899 90 36 92.9102 36 96.5ZM60 96.5C60 100.09 62.9101 103 66.5 103C70.0899 103 73 100.09 73 96.5C73 92.9101 70.0899 90 66.5 90C62.9101 90 60 92.9101 60 96.5Z" fill="#212121"/>
</g>
<defs>
<clipPath id="clip0_4_210">
<rect width="96" height="155" fill="white"/>
</clipPath>
</defs>
</svg>
