<svg width="129" height="39" viewBox="0 0 129 39" fill="none" xmlns="http://www.w3.org/2000/svg">
<path fill-rule="evenodd" clip-rule="evenodd" d="M12.4137 2.4456C12.9007 2.27375 13.25 1.80696 13.25 1.25806C13.25 0.563256 12.6903 0 12 0C11.3097 0 10.75 0.563256 10.75 1.25806C10.75 1.80904 11.1019 2.27729 11.5919 2.44754L9.09863 6.42277L6.19373 3.81443C6.52913 3.58881 6.75 3.20424 6.75 2.76774C6.75 2.07293 6.19035 1.50968 5.5 1.50968C4.80965 1.50968 4.25 2.07293 4.25 2.76774C4.25 3.46255 4.80965 4.02581 5.5 4.02581V10.8194H18.5V4.02581C19.1903 4.02581 19.75 3.46255 19.75 2.76774C19.75 2.07293 19.1903 1.50968 18.5 1.50968C17.8097 1.50968 17.25 2.07293 17.25 2.76774C17.25 3.20593 17.4726 3.59177 17.8101 3.81702L14.9081 6.42277L12.4137 2.4456Z" fill="#212121"/>
<path fill-rule="evenodd" clip-rule="evenodd" d="M0 13.3355H12H24V30.9411L12 38.7844L0 30.9411V13.3355ZM12 34.8937L21 29.0112V21.2034L12 16.5881L3 21.2034V29.0112L12 34.8937ZM9 24.2806C9 25.1839 8.27248 25.9161 7.375 25.9161C6.47752 25.9161 5.75 25.1839 5.75 24.2806C5.75 23.3774 6.47752 22.6452 7.375 22.6452C8.27248 22.6452 9 23.3774 9 24.2806ZM15 24.2806C15 25.1839 15.7275 25.9161 16.625 25.9161C17.5225 25.9161 18.25 25.1839 18.25 24.2806C18.25 23.3774 17.5225 22.6452 16.625 22.6452C15.7275 22.6452 15 23.3774 15 24.2806Z" fill="#212121"/>
</g>
<path d="M38.442 5.564H41.712V5.978H38.442V5.564ZM39.024 4.088H41.502V4.502H39.024V4.088ZM39.876 2.96H40.314V8.474H39.876V2.96ZM39.708 5.756L40.068 5.87C39.948 6.182 39.8 6.484 39.624 6.776C39.448 7.068 39.256 7.334 39.048 7.574C38.844 7.814 38.63 8.016 38.406 8.18C38.382 8.144 38.352 8.104 38.316 8.06C38.28 8.016 38.242 7.974 38.202 7.934C38.166 7.894 38.132 7.86 38.1 7.832C38.316 7.696 38.526 7.518 38.73 7.298C38.934 7.078 39.12 6.836 39.288 6.572C39.46 6.304 39.6 6.032 39.708 5.756ZM40.506 5.78C40.602 6.036 40.722 6.292 40.866 6.548C41.014 6.804 41.174 7.04 41.346 7.256C41.522 7.468 41.698 7.644 41.874 7.784C41.842 7.808 41.804 7.84 41.76 7.88C41.72 7.92 41.68 7.962 41.64 8.006C41.604 8.05 41.574 8.092 41.55 8.132C41.37 7.968 41.194 7.766 41.022 7.526C40.85 7.286 40.69 7.024 40.542 6.74C40.398 6.456 40.276 6.172 40.176 5.888L40.506 5.78ZM38.982 3.242L39.402 3.314C39.342 3.71 39.256 4.09 39.144 4.454C39.032 4.818 38.896 5.128 38.736 5.384C38.708 5.364 38.672 5.34 38.628 5.312C38.584 5.28 38.538 5.25 38.49 5.222C38.446 5.194 38.404 5.174 38.364 5.162C38.528 4.922 38.658 4.634 38.754 4.298C38.854 3.958 38.93 3.606 38.982 3.242ZM36.324 4.118H38.4V4.538H36.324V4.118ZM37.194 2.96H37.632V8.474H37.194V2.96ZM37.182 4.388L37.452 4.484C37.404 4.732 37.344 4.986 37.272 5.246C37.2 5.502 37.12 5.756 37.032 6.008C36.944 6.256 36.848 6.488 36.744 6.704C36.644 6.92 36.54 7.104 36.432 7.256C36.42 7.212 36.4 7.164 36.372 7.112C36.344 7.056 36.314 7.002 36.282 6.95C36.25 6.898 36.22 6.854 36.192 6.818C36.296 6.686 36.396 6.526 36.492 6.338C36.592 6.15 36.686 5.946 36.774 5.726C36.866 5.506 36.946 5.282 37.014 5.054C37.082 4.822 37.138 4.6 37.182 4.388ZM37.608 4.712C37.644 4.756 37.698 4.832 37.77 4.94C37.842 5.048 37.918 5.168 37.998 5.3C38.082 5.428 38.158 5.548 38.226 5.66C38.298 5.768 38.348 5.846 38.376 5.894L38.106 6.218C38.07 6.138 38.02 6.038 37.956 5.918C37.896 5.794 37.83 5.664 37.758 5.528C37.686 5.392 37.616 5.266 37.548 5.15C37.484 5.034 37.432 4.944 37.392 4.88L37.608 4.712ZM46.254 3.254L46.56 3.002C46.66 3.07 46.766 3.148 46.878 3.236C46.99 3.32 47.094 3.406 47.19 3.494C47.29 3.578 47.37 3.656 47.43 3.728L47.118 4.01C47.058 3.938 46.98 3.858 46.884 3.77C46.792 3.678 46.69 3.588 46.578 3.5C46.47 3.408 46.362 3.326 46.254 3.254ZM42.33 4.082H47.682V4.52H42.33V4.082ZM42.54 5.414H45.192V5.852H42.54V5.414ZM43.62 5.648H44.07V7.79H43.62V5.648ZM42.354 7.856C42.594 7.808 42.876 7.752 43.2 7.688C43.528 7.62 43.876 7.548 44.244 7.472C44.616 7.392 44.986 7.312 45.354 7.232L45.39 7.64C45.05 7.72 44.706 7.8 44.358 7.88C44.014 7.96 43.682 8.036 43.362 8.108C43.042 8.18 42.754 8.244 42.498 8.3L42.354 7.856ZM45.39 2.984H45.87C45.866 3.54 45.882 4.07 45.918 4.574C45.958 5.078 46.014 5.54 46.086 5.96C46.162 6.38 46.252 6.744 46.356 7.052C46.464 7.36 46.582 7.6 46.71 7.772C46.842 7.94 46.982 8.024 47.13 8.024C47.214 8.024 47.276 7.934 47.316 7.754C47.356 7.574 47.386 7.284 47.406 6.884C47.454 6.932 47.516 6.98 47.592 7.028C47.668 7.076 47.738 7.112 47.802 7.136C47.778 7.484 47.74 7.756 47.688 7.952C47.636 8.148 47.562 8.286 47.466 8.366C47.374 8.45 47.25 8.492 47.094 8.492C46.894 8.492 46.712 8.424 46.548 8.288C46.388 8.152 46.246 7.96 46.122 7.712C45.998 7.46 45.89 7.166 45.798 6.83C45.706 6.49 45.63 6.116 45.57 5.708C45.514 5.296 45.47 4.86 45.438 4.4C45.41 3.94 45.394 3.468 45.39 2.984ZM48.582 7.826C48.934 7.814 49.342 7.802 49.806 7.79C50.274 7.774 50.77 7.756 51.294 7.736C51.818 7.716 52.34 7.694 52.86 7.67L52.848 8.084C52.344 8.108 51.836 8.132 51.324 8.156C50.812 8.18 50.326 8.2 49.866 8.216C49.406 8.236 48.998 8.254 48.642 8.27L48.582 7.826ZM48.534 5.972H53.508V6.398H48.534V5.972ZM49.56 4.82H52.422V5.24H49.56V4.82ZM50.178 6.242L50.682 6.386C50.59 6.574 50.49 6.774 50.382 6.986C50.278 7.194 50.172 7.396 50.064 7.592C49.96 7.788 49.858 7.962 49.758 8.114L49.362 7.976C49.458 7.82 49.556 7.64 49.656 7.436C49.76 7.232 49.858 7.026 49.95 6.818C50.042 6.606 50.118 6.414 50.178 6.242ZM51.6 6.878L51.984 6.668C52.172 6.824 52.356 6.996 52.536 7.184C52.72 7.372 52.888 7.558 53.04 7.742C53.192 7.926 53.314 8.094 53.406 8.246L53.004 8.498C52.912 8.346 52.79 8.176 52.638 7.988C52.486 7.796 52.32 7.602 52.14 7.406C51.964 7.21 51.784 7.034 51.6 6.878ZM50.976 3.404C50.816 3.644 50.604 3.892 50.34 4.148C50.08 4.4 49.79 4.64 49.47 4.868C49.154 5.096 48.826 5.296 48.486 5.468C48.466 5.428 48.44 5.386 48.408 5.342C48.38 5.298 48.348 5.254 48.312 5.21C48.28 5.166 48.248 5.128 48.216 5.096C48.564 4.932 48.898 4.734 49.218 4.502C49.542 4.266 49.834 4.016 50.094 3.752C50.358 3.484 50.566 3.222 50.718 2.966H51.186C51.346 3.19 51.528 3.406 51.732 3.614C51.936 3.818 52.154 4.01 52.386 4.19C52.618 4.37 52.854 4.532 53.094 4.676C53.338 4.816 53.58 4.934 53.82 5.03C53.768 5.086 53.716 5.152 53.664 5.228C53.616 5.3 53.57 5.368 53.526 5.432C53.218 5.284 52.902 5.102 52.578 4.886C52.258 4.666 51.958 4.428 51.678 4.172C51.398 3.916 51.164 3.66 50.976 3.404ZM56.43 7.868H59.826V8.306H56.43V7.868ZM56.67 4.922H59.694V5.354H56.67V4.922ZM57.954 3.008H58.416V8.078H57.954V3.008ZM54.33 4.088H56.322V4.502H54.33V4.088ZM55.278 5.882L55.728 5.354V8.48H55.278V5.882ZM55.278 2.96H55.728V4.292H55.278V2.96ZM55.686 5.468C55.738 5.504 55.814 5.564 55.914 5.648C56.014 5.732 56.122 5.824 56.238 5.924C56.354 6.02 56.46 6.11 56.556 6.194C56.652 6.278 56.72 6.34 56.76 6.38L56.484 6.746C56.432 6.682 56.36 6.602 56.268 6.506C56.176 6.41 56.076 6.31 55.968 6.206C55.864 6.102 55.764 6.006 55.668 5.918C55.572 5.826 55.492 5.754 55.428 5.702L55.686 5.468ZM56.154 4.088H56.25L56.334 4.07L56.586 4.238C56.438 4.606 56.244 4.958 56.004 5.294C55.764 5.626 55.5 5.928 55.212 6.2C54.928 6.472 54.644 6.702 54.36 6.89C54.344 6.846 54.322 6.798 54.294 6.746C54.266 6.694 54.236 6.644 54.204 6.596C54.176 6.548 54.15 6.51 54.126 6.482C54.398 6.322 54.666 6.122 54.93 5.882C55.194 5.638 55.434 5.37 55.65 5.078C55.87 4.782 56.038 4.482 56.154 4.178V4.088ZM61.788 7.064H62.232V7.844C62.232 7.916 62.254 7.964 62.298 7.988C62.346 8.008 62.452 8.018 62.616 8.018C62.652 8.018 62.718 8.018 62.814 8.018C62.914 8.018 63.024 8.018 63.144 8.018C63.268 8.018 63.382 8.018 63.486 8.018C63.594 8.018 63.672 8.018 63.72 8.018C63.804 8.018 63.866 8.006 63.906 7.982C63.95 7.958 63.982 7.908 64.002 7.832C64.022 7.752 64.036 7.632 64.044 7.472C64.076 7.492 64.116 7.514 64.164 7.538C64.212 7.558 64.26 7.576 64.308 7.592C64.356 7.608 64.4 7.62 64.44 7.628C64.424 7.84 64.394 8.002 64.35 8.114C64.306 8.23 64.238 8.308 64.146 8.348C64.054 8.392 63.926 8.414 63.762 8.414C63.734 8.414 63.68 8.414 63.6 8.414C63.52 8.414 63.428 8.414 63.324 8.414C63.224 8.414 63.12 8.414 63.012 8.414C62.908 8.414 62.816 8.414 62.736 8.414C62.66 8.414 62.608 8.414 62.58 8.414C62.372 8.414 62.21 8.398 62.094 8.366C61.978 8.334 61.898 8.276 61.854 8.192C61.81 8.112 61.788 7.998 61.788 7.85V7.064ZM62.37 6.98L62.658 6.728C62.834 6.8 63.01 6.892 63.186 7.004C63.366 7.116 63.506 7.226 63.606 7.334L63.312 7.616C63.216 7.508 63.078 7.396 62.898 7.28C62.722 7.16 62.546 7.06 62.37 6.98ZM64.362 7.256L64.716 7.04C64.852 7.136 64.988 7.246 65.124 7.37C65.264 7.49 65.39 7.612 65.502 7.736C65.618 7.86 65.708 7.978 65.772 8.09L65.388 8.324C65.328 8.216 65.244 8.098 65.136 7.97C65.028 7.842 64.906 7.716 64.77 7.592C64.638 7.468 64.502 7.356 64.362 7.256ZM61.044 7.088L61.428 7.232C61.348 7.44 61.24 7.644 61.104 7.844C60.972 8.044 60.802 8.21 60.594 8.342L60.234 8.084C60.43 7.972 60.596 7.826 60.732 7.646C60.868 7.466 60.972 7.28 61.044 7.088ZM60.87 5.162H65.04V6.806H60.834V6.494H64.602V5.474H60.87V5.162ZM61.062 5.822H64.752V6.122H61.062V5.822ZM60.474 3.272H62.784V3.572H60.474V3.272ZM60.6 3.866H62.7V4.16H60.6V3.866ZM61.434 2.96H61.854V5.072H61.434V2.96ZM63.03 3.272H65.496V3.572H63.03V3.272ZM62.964 4.466H65.604V4.76H62.964V4.466ZM63.162 3.866H65.4V4.16H63.162V3.866ZM64.02 2.96H64.446V5.072H64.02V2.96ZM60.396 4.538C60.6 4.526 60.832 4.514 61.092 4.502C61.356 4.486 61.636 4.468 61.932 4.448C62.228 4.428 62.526 4.408 62.826 4.388V4.688C62.386 4.72 61.954 4.752 61.53 4.784C61.106 4.816 60.736 4.844 60.42 4.868L60.396 4.538ZM68.142 5.51H71.766V5.882H68.142V5.51ZM68.802 6.308H71.262V6.674H68.802V6.308ZM69.036 5.642L69.42 5.738C69.288 6.078 69.11 6.39 68.886 6.674C68.666 6.958 68.426 7.196 68.166 7.388C68.146 7.364 68.118 7.334 68.082 7.298C68.046 7.262 68.008 7.226 67.968 7.19C67.932 7.154 67.9 7.124 67.872 7.1C68.128 6.936 68.358 6.728 68.562 6.476C68.77 6.224 68.928 5.946 69.036 5.642ZM69.51 6.44L69.87 6.548C69.71 6.92 69.496 7.264 69.228 7.58C68.96 7.892 68.676 8.154 68.376 8.366C68.356 8.338 68.33 8.304 68.298 8.264C68.266 8.228 68.234 8.192 68.202 8.156C68.17 8.12 68.138 8.09 68.106 8.066C68.402 7.882 68.674 7.648 68.922 7.364C69.17 7.08 69.366 6.772 69.51 6.44ZM70.392 6.452L70.764 6.536C70.644 6.932 70.48 7.296 70.272 7.628C70.064 7.96 69.83 8.238 69.57 8.462C69.55 8.442 69.522 8.414 69.486 8.378C69.45 8.346 69.412 8.314 69.372 8.282C69.336 8.25 69.302 8.224 69.27 8.204C69.526 8 69.75 7.748 69.942 7.448C70.138 7.144 70.288 6.812 70.392 6.452ZM71.142 6.308H71.568C71.568 6.308 71.566 6.332 71.562 6.38C71.558 6.424 71.554 6.46 71.55 6.488C71.526 6.888 71.5 7.214 71.472 7.466C71.444 7.714 71.412 7.904 71.376 8.036C71.34 8.168 71.298 8.262 71.25 8.318C71.206 8.37 71.158 8.406 71.106 8.426C71.054 8.446 70.994 8.46 70.926 8.468C70.866 8.476 70.786 8.48 70.686 8.48C70.59 8.48 70.488 8.476 70.38 8.468C70.376 8.412 70.364 8.348 70.344 8.276C70.324 8.204 70.3 8.142 70.272 8.09C70.372 8.098 70.464 8.104 70.548 8.108C70.632 8.112 70.694 8.114 70.734 8.114C70.774 8.114 70.806 8.11 70.83 8.102C70.858 8.094 70.882 8.078 70.902 8.054C70.934 8.014 70.964 7.936 70.992 7.82C71.024 7.7 71.052 7.524 71.076 7.292C71.1 7.06 71.122 6.754 71.142 6.374V6.308ZM69.084 4.328V4.808H70.842V4.328H69.084ZM69.084 3.542V4.004H70.842V3.542H69.084ZM68.67 3.2H71.28V5.15H68.67V3.2ZM66.486 3.218H67.896V3.626H66.888V8.48H66.486V3.218ZM67.764 3.218H67.842L67.908 3.2L68.202 3.374C68.142 3.538 68.078 3.714 68.01 3.902C67.946 4.086 67.878 4.27 67.806 4.454C67.738 4.634 67.67 4.804 67.602 4.964C67.822 5.212 67.966 5.444 68.034 5.66C68.106 5.872 68.142 6.072 68.142 6.26C68.142 6.42 68.122 6.56 68.082 6.68C68.046 6.8 67.986 6.89 67.902 6.95C67.862 6.978 67.814 7.002 67.758 7.022C67.706 7.038 67.65 7.05 67.59 7.058C67.466 7.07 67.332 7.074 67.188 7.07C67.184 7.014 67.172 6.948 67.152 6.872C67.136 6.796 67.11 6.73 67.074 6.674C67.142 6.678 67.206 6.68 67.266 6.68C67.326 6.68 67.378 6.68 67.422 6.68C67.502 6.676 67.566 6.658 67.614 6.626C67.662 6.59 67.694 6.536 67.71 6.464C67.73 6.388 67.74 6.306 67.74 6.218C67.74 6.05 67.702 5.868 67.626 5.672C67.554 5.472 67.41 5.254 67.194 5.018C67.25 4.882 67.304 4.738 67.356 4.586C67.412 4.43 67.464 4.278 67.512 4.13C67.564 3.978 67.61 3.834 67.65 3.698C67.694 3.562 67.732 3.444 67.764 3.344V3.218ZM74.43 7.868H77.826V8.306H74.43V7.868ZM74.67 4.922H77.694V5.354H74.67V4.922ZM75.954 3.008H76.416V8.078H75.954V3.008ZM72.33 4.088H74.322V4.502H72.33V4.088ZM73.278 5.882L73.728 5.354V8.48H73.278V5.882ZM73.278 2.96H73.728V4.292H73.278V2.96ZM73.686 5.468C73.738 5.504 73.814 5.564 73.914 5.648C74.014 5.732 74.122 5.824 74.238 5.924C74.354 6.02 74.46 6.11 74.556 6.194C74.652 6.278 74.72 6.34 74.76 6.38L74.484 6.746C74.432 6.682 74.36 6.602 74.268 6.506C74.176 6.41 74.076 6.31 73.968 6.206C73.864 6.102 73.764 6.006 73.668 5.918C73.572 5.826 73.492 5.754 73.428 5.702L73.686 5.468ZM74.154 4.088H74.25L74.334 4.07L74.586 4.238C74.438 4.606 74.244 4.958 74.004 5.294C73.764 5.626 73.5 5.928 73.212 6.2C72.928 6.472 72.644 6.702 72.36 6.89C72.344 6.846 72.322 6.798 72.294 6.746C72.266 6.694 72.236 6.644 72.204 6.596C72.176 6.548 72.15 6.51 72.126 6.482C72.398 6.322 72.666 6.122 72.93 5.882C73.194 5.638 73.434 5.37 73.65 5.078C73.87 4.782 74.038 4.482 74.154 4.178V4.088Z" fill="#212121"/>
<path d="M40.082 21.9375L45.9512 15.9219H48.9883L42.1719 22.748L49.0273 31H45.9805L40.5508 24.291L40.082 24.7598V31H37.8066V15.9219H40.082V21.9375ZM58.6855 26.7617H51.8691C51.9277 27.543 52.1816 28.1647 52.6309 28.627C53.0801 29.0827 53.6562 29.3105 54.3594 29.3105C54.9062 29.3105 55.3587 29.1803 55.7168 28.9199C56.0684 28.6595 56.4688 28.1777 56.918 27.4746L58.7734 28.5098C58.487 28.998 58.1842 29.418 57.8652 29.7695C57.5462 30.1146 57.2044 30.401 56.8398 30.6289C56.4753 30.8503 56.0814 31.013 55.6582 31.1172C55.235 31.2214 54.776 31.2734 54.2812 31.2734C52.862 31.2734 51.7227 30.8177 50.8633 29.9062C50.0039 28.9883 49.5742 27.7708 49.5742 26.2539C49.5742 24.75 49.9909 23.5326 50.8242 22.6016C51.6641 21.6836 52.7773 21.2246 54.1641 21.2246C55.5638 21.2246 56.6706 21.6706 57.4844 22.5625C58.2917 23.4479 58.6953 24.6751 58.6953 26.2441L58.6855 26.7617ZM56.4297 24.9648C56.1237 23.793 55.3848 23.207 54.2129 23.207C53.946 23.207 53.6953 23.2493 53.4609 23.334C53.2266 23.4121 53.0117 23.5293 52.8164 23.6855C52.6276 23.8353 52.4648 24.0176 52.3281 24.2324C52.1914 24.4473 52.0872 24.6914 52.0156 24.9648H56.4297ZM63.2949 21.4883V31H61.0977V21.4883H63.2949ZM60.7656 17.5332C60.7656 17.1491 60.9056 16.8171 61.1855 16.5371C61.4655 16.2572 61.8008 16.1172 62.1914 16.1172C62.5885 16.1172 62.9271 16.2572 63.207 16.5371C63.487 16.8105 63.627 17.1458 63.627 17.543C63.627 17.9401 63.487 18.2786 63.207 18.5586C62.9336 18.8385 62.5983 18.9785 62.2012 18.9785C61.804 18.9785 61.4655 18.8385 61.1855 18.5586C60.9056 18.2786 60.7656 17.9368 60.7656 17.5332ZM69.0762 29.2324L64.7988 21.4883H67.3477L70.2578 26.957L72.9727 21.4883H75.4531L67.875 36.1758H65.3652L69.0762 29.2324ZM76.1172 26.1758C76.1172 24.8021 76.6087 23.6335 77.5918 22.6699C78.5749 21.7064 79.7728 21.2246 81.1855 21.2246C82.6048 21.2246 83.8092 21.7096 84.7988 22.6797C85.7754 23.6497 86.2637 24.8411 86.2637 26.2539C86.2637 27.6797 85.7721 28.8743 84.7891 29.8379C83.7995 30.7949 82.5853 31.2734 81.1465 31.2734C79.7207 31.2734 78.526 30.7852 77.5625 29.8086C76.599 28.8451 76.1172 27.6341 76.1172 26.1758ZM78.3633 26.2148C78.3633 27.1654 78.6172 27.9173 79.125 28.4707C79.6458 29.0306 80.3327 29.3105 81.1855 29.3105C82.0449 29.3105 82.7318 29.0339 83.2461 28.4805C83.7604 27.9271 84.0176 27.1882 84.0176 26.2637C84.0176 25.3392 83.7604 24.6003 83.2461 24.0469C82.7253 23.487 82.0384 23.207 81.1855 23.207C80.3457 23.207 79.6654 23.487 79.1445 24.0469C78.6237 24.6068 78.3633 25.3294 78.3633 26.2148ZM90.7949 21.4883V26.9473C90.7949 28.5228 91.4167 29.3105 92.6602 29.3105C93.9036 29.3105 94.5254 28.5228 94.5254 26.9473V21.4883H96.7227V26.9961C96.7227 27.7578 96.6283 28.4154 96.4395 28.9688C96.2572 29.4635 95.9414 29.9095 95.4922 30.3066C94.75 30.9512 93.806 31.2734 92.6602 31.2734C91.5208 31.2734 90.5801 30.9512 89.8379 30.3066C89.3822 29.9095 89.0599 29.4635 88.8711 28.9688C88.6888 28.526 88.5977 27.8685 88.5977 26.9961V21.4883H90.7949ZM105.023 23.1094L103.207 24.0762C102.921 23.4902 102.566 23.1973 102.143 23.1973C101.941 23.1973 101.768 23.2656 101.625 23.4023C101.482 23.5326 101.41 23.7018 101.41 23.9102C101.41 24.2747 101.833 24.6361 102.68 24.9941C103.845 25.4954 104.63 25.9577 105.033 26.3809C105.437 26.804 105.639 27.3737 105.639 28.0898C105.639 29.0078 105.3 29.776 104.623 30.3945C103.965 30.9805 103.171 31.2734 102.24 31.2734C100.645 31.2734 99.5156 30.4954 98.8516 28.9395L100.727 28.0703C100.987 28.526 101.186 28.8158 101.322 28.9395C101.589 29.1868 101.908 29.3105 102.279 29.3105C103.021 29.3105 103.393 28.972 103.393 28.2949C103.393 27.9043 103.106 27.5397 102.533 27.2012C102.312 27.0905 102.09 26.9831 101.869 26.8789C101.648 26.7747 101.423 26.6673 101.195 26.5566C100.557 26.2441 100.108 25.9316 99.8477 25.6191C99.5156 25.222 99.3496 24.7109 99.3496 24.0859C99.3496 23.2591 99.6328 22.5755 100.199 22.0352C100.779 21.4948 101.482 21.2246 102.309 21.2246C103.526 21.2246 104.431 21.8529 105.023 23.1094ZM110.619 29.2324L106.342 21.4883H108.891L111.801 26.957L114.516 21.4883H116.996L109.418 36.1758H106.908L110.619 29.2324ZM125.16 21.4883H127.367V31H125.16V30.0039C124.255 30.8503 123.282 31.2734 122.24 31.2734C120.925 31.2734 119.838 30.7982 118.979 29.8477C118.126 28.8776 117.699 27.6667 117.699 26.2148C117.699 24.7891 118.126 23.6009 118.979 22.6504C119.831 21.6999 120.899 21.2246 122.182 21.2246C123.288 21.2246 124.281 21.6803 125.16 22.5918V21.4883ZM119.945 26.2148C119.945 27.1263 120.189 27.8685 120.678 28.4414C121.179 29.0208 121.811 29.3105 122.572 29.3105C123.386 29.3105 124.044 29.0306 124.545 28.4707C125.046 27.8913 125.297 27.1556 125.297 26.2637C125.297 25.3717 125.046 24.6361 124.545 24.0566C124.044 23.4902 123.393 23.207 122.592 23.207C121.837 23.207 121.205 23.4935 120.697 24.0664C120.196 24.6458 119.945 25.362 119.945 26.2148Z" fill="#212121"/>
<defs>
<clipPath id="clip0_12_269">
<rect width="24" height="39" fill="white"/>
</clipPath>
</defs>
</svg>
